<svg width="21" height="22" viewBox="0 0 21 22" fill="none" xmlns="http://www.w3.org/2000/svg">
<path d="M18.997 18.2538L15.7507 15.0338C17.0108 13.4626 17.621 11.4684 17.4559 9.46115C17.2908 7.4539 16.3629 5.58619 14.863 4.24207C13.3632 2.89795 11.4053 2.17958 9.39202 2.23467C7.37874 2.28976 5.46309 3.11412 4.03896 4.53826C2.61483 5.96239 1.79046 7.87804 1.73537 9.89132C1.68028 11.9046 2.39865 13.8625 3.74277 15.3623C5.08689 16.8622 6.9546 17.7901 8.96185 17.9552C10.9691 18.1203 12.9633 17.5101 14.5345 16.25L17.7545 19.47C17.8358 19.552 17.9326 19.6171 18.0392 19.6615C18.1458 19.706 18.2602 19.7288 18.3757 19.7288C18.4912 19.7288 18.6056 19.706 18.7122 19.6615C18.8188 19.6171 18.9156 19.552 18.997 19.47C19.1547 19.3069 19.2428 19.0888 19.2428 18.8619C19.2428 18.635 19.1547 18.4169 18.997 18.2538ZM9.62571 16.25C8.4143 16.25 7.23009 15.8908 6.22284 15.2178C5.21559 14.5447 4.43053 13.5881 3.96695 12.4689C3.50336 11.3497 3.38207 10.1182 3.6184 8.93008C3.85473 7.74195 4.43808 6.65058 5.29468 5.79398C6.15128 4.93738 7.24265 4.35403 8.43078 4.1177C9.61892 3.88136 10.8504 4.00266 11.9696 4.46625C13.0888 4.92983 14.0454 5.71489 14.7185 6.72214C15.3915 7.72939 15.7507 8.9136 15.7507 10.125C15.7507 11.7495 15.1054 13.3074 13.9567 14.456C12.8081 15.6047 11.2502 16.25 9.62571 16.25Z" fill="#444444"/>
</svg>
