<svg width="26" height="27" viewBox="0 0 26 27" fill="none" xmlns="http://www.w3.org/2000/svg">
<path d="M0 1.69792C0 1.40784 0.115234 1.12964 0.320352 0.924524C0.52547 0.719406 0.80367 0.604172 1.09375 0.604172H1.9075C3.29292 0.604172 4.12417 1.53605 4.59812 2.4023C4.91458 2.9798 5.14354 3.64917 5.32292 4.25584L5.46875 4.25001H23.695C24.9054 4.25001 25.7804 5.40792 25.4479 6.57313L22.7821 15.9196C22.5431 16.7579 22.0374 17.4955 21.3417 18.0208C20.6459 18.546 19.798 18.8302 18.9263 18.8304H10.2521C9.37343 18.8305 8.51908 18.5419 7.82035 18.0092C7.12162 17.4764 6.61719 16.729 6.38458 15.8817L5.27625 11.8392L3.43875 5.64417L3.43729 5.6325C3.20979 4.80563 2.99687 4.03126 2.67896 3.45376C2.37417 2.8923 2.12917 2.79167 1.90896 2.79167H1.09375C0.80367 2.79167 0.52547 2.67644 0.320352 2.47132C0.115234 2.2662 0 1.988 0 1.69792ZM7.39813 11.3083L8.49333 15.3027C8.71208 16.0931 9.43104 16.6429 10.2521 16.6429H18.9263C19.3225 16.6429 19.7079 16.5138 20.0242 16.2751C20.3405 16.0365 20.5704 15.7012 20.6792 15.3202L23.2123 6.43751H5.95729L7.37771 11.231L7.39813 11.3083ZM12.3958 23.2083C12.3958 23.9819 12.0885 24.7238 11.5416 25.2707C10.9946 25.8177 10.2527 26.125 9.47917 26.125C8.70562 26.125 7.96375 25.8177 7.41677 25.2707C6.86979 24.7238 6.5625 23.9819 6.5625 23.2083C6.5625 22.4348 6.86979 21.6929 7.41677 21.1459C7.96375 20.599 8.70562 20.2917 9.47917 20.2917C10.2527 20.2917 10.9946 20.599 11.5416 21.1459C12.0885 21.6929 12.3958 22.4348 12.3958 23.2083ZM10.2083 23.2083C10.2083 23.015 10.1315 22.8295 9.99477 22.6927C9.85802 22.556 9.67255 22.4792 9.47917 22.4792C9.28578 22.4792 9.10031 22.556 8.96357 22.6927C8.82682 22.8295 8.75 23.015 8.75 23.2083C8.75 23.4017 8.82682 23.5872 8.96357 23.7239C9.10031 23.8607 9.28578 23.9375 9.47917 23.9375C9.67255 23.9375 9.85802 23.8607 9.99477 23.7239C10.1315 23.5872 10.2083 23.4017 10.2083 23.2083ZM22.6042 23.2083C22.6042 23.9819 22.2969 24.7238 21.7499 25.2707C21.2029 25.8177 20.461 26.125 19.6875 26.125C18.914 26.125 18.1721 25.8177 17.6251 25.2707C17.0781 24.7238 16.7708 23.9819 16.7708 23.2083C16.7708 22.4348 17.0781 21.6929 17.6251 21.1459C18.1721 20.599 18.914 20.2917 19.6875 20.2917C20.461 20.2917 21.2029 20.599 21.7499 21.1459C22.2969 21.6929 22.6042 22.4348 22.6042 23.2083ZM20.4167 23.2083C20.4167 23.015 20.3398 22.8295 20.2031 22.6927C20.0664 22.556 19.8809 22.4792 19.6875 22.4792C19.4941 22.4792 19.3086 22.556 19.1719 22.6927C19.0352 22.8295 18.9583 23.015 18.9583 23.2083C18.9583 23.4017 19.0352 23.5872 19.1719 23.7239C19.3086 23.8607 19.4941 23.9375 19.6875 23.9375C19.8809 23.9375 20.0664 23.8607 20.2031 23.7239C20.3398 23.5872 20.4167 23.4017 20.4167 23.2083Z" fill="#333333"/>
</svg>
