<svg width="333" height="77" viewBox="0 0 333 77" fill="none" xmlns="http://www.w3.org/2000/svg">
<circle cx="6.50684" cy="6.04858" r="6" fill="#D9D9D9" fill-opacity="0.4"/>
<circle cx="38.5068" cy="6.04858" r="6" fill="#D9D9D9" fill-opacity="0.4"/>
<circle cx="70.5068" cy="6.04858" r="6" fill="#D9D9D9" fill-opacity="0.4"/>
<circle cx="102.507" cy="6.04858" r="6" fill="#D9D9D9" fill-opacity="0.4"/>
<circle cx="134.507" cy="6.04858" r="6" fill="#D9D9D9" fill-opacity="0.4"/>
<circle cx="166.507" cy="6.04858" r="6" fill="#D9D9D9" fill-opacity="0.4"/>
<circle cx="198.507" cy="6.04858" r="6" fill="#D9D9D9" fill-opacity="0.4"/>
<circle cx="230.507" cy="6.04858" r="6" fill="#D9D9D9" fill-opacity="0.4"/>
<circle cx="262.507" cy="6.04858" r="6" fill="#D9D9D9" fill-opacity="0.4"/>
<circle cx="294.507" cy="6.04858" r="6" fill="#D9D9D9" fill-opacity="0.4"/>
<circle cx="326.507" cy="6.04858" r="6" fill="#D9D9D9" fill-opacity="0.4"/>
<circle cx="6.50684" cy="38.0486" r="6" fill="#D9D9D9" fill-opacity="0.4"/>
<circle cx="38.5068" cy="38.0486" r="6" fill="#D9D9D9" fill-opacity="0.4"/>
<circle cx="70.5068" cy="38.0486" r="6" fill="#D9D9D9" fill-opacity="0.4"/>
<circle cx="102.507" cy="38.0486" r="6" fill="#D9D9D9" fill-opacity="0.4"/>
<circle cx="134.507" cy="38.0486" r="6" fill="#D9D9D9" fill-opacity="0.4"/>
<circle cx="166.507" cy="38.0486" r="6" fill="#D9D9D9" fill-opacity="0.4"/>
<circle cx="198.507" cy="38.0486" r="6" fill="#D9D9D9" fill-opacity="0.4"/>
<circle cx="230.507" cy="38.0486" r="6" fill="#D9D9D9" fill-opacity="0.4"/>
<circle cx="262.507" cy="38.0486" r="6" fill="#D9D9D9" fill-opacity="0.4"/>
<circle cx="294.507" cy="38.0486" r="6" fill="#D9D9D9" fill-opacity="0.4"/>
<circle cx="326.507" cy="38.0486" r="6" fill="#D9D9D9" fill-opacity="0.4"/>
<circle cx="6.50684" cy="70.0486" r="6" fill="#D9D9D9" fill-opacity="0.4"/>
<circle cx="38.5068" cy="70.0486" r="6" fill="#D9D9D9" fill-opacity="0.4"/>
<circle cx="70.5068" cy="70.0486" r="6" fill="#D9D9D9" fill-opacity="0.4"/>
<circle cx="102.507" cy="70.0486" r="6" fill="#D9D9D9" fill-opacity="0.4"/>
<circle cx="134.507" cy="70.0486" r="6" fill="#D9D9D9" fill-opacity="0.4"/>
<circle cx="166.507" cy="70.0486" r="6" fill="#D9D9D9" fill-opacity="0.4"/>
<circle cx="198.507" cy="70.0486" r="6" fill="#D9D9D9" fill-opacity="0.4"/>
<circle cx="230.507" cy="70.0486" r="6" fill="#D9D9D9" fill-opacity="0.4"/>
<circle cx="262.507" cy="70.0486" r="6" fill="#D9D9D9" fill-opacity="0.4"/>
<circle cx="294.507" cy="70.0486" r="6" fill="#D9D9D9" fill-opacity="0.4"/>
<circle cx="326.507" cy="70.0486" r="6" fill="#D9D9D9" fill-opacity="0.4"/>
</svg>
